<svg width="149" height="29" viewBox="0 0 149 29" fill="none" xmlns="http://www.w3.org/2000/svg">
    <path d="M35.4015 23H31.0539V20.3087H35.2405C36.429 20.3087 37.4219 20.094 38.2193 19.6646C39.0244 19.2275 39.6264 18.5719 40.0251 17.6978C40.4315 16.8237 40.6347 15.7311 40.6347 14.4199C40.6347 13.1088 40.4353 12.0199 40.0366 11.1535C39.6379 10.2871 39.0436 9.63915 38.2539 9.20976C37.4641 8.7727 36.4865 8.55418 35.321 8.55418H30.9619V5.86284H35.505C37.2072 5.86284 38.6679 6.20405 39.8871 6.88647C41.1139 7.56889 42.057 8.55034 42.7164 9.83084C43.3758 11.1113 43.7055 12.641 43.7055 14.4199C43.7055 16.1988 43.3758 17.7323 42.7164 19.0205C42.057 20.301 41.1062 21.2863 39.8641 21.9764C38.6296 22.6588 37.142 23 35.4015 23ZM32.6871 5.86284V23H29.5818V5.86284H32.6871ZM51.3195 23.253C50.0313 23.253 48.9195 22.9847 47.9841 22.4479C47.0486 21.9035 46.3279 21.1368 45.8218 20.1476C45.3234 19.1585 45.0742 17.993 45.0742 16.6512C45.0742 15.3247 45.3234 14.1631 45.8218 13.1663C46.3202 12.1618 47.0218 11.3797 47.9266 10.82C48.8314 10.2602 49.8972 9.98036 51.124 9.98036C51.9137 9.98036 52.6613 10.1069 53.3668 10.3599C54.0798 10.6129 54.7086 11.004 55.253 11.5331C55.8051 12.0621 56.2383 12.7369 56.5527 13.5573C56.867 14.3701 57.0242 15.34 57.0242 16.4672V17.4103H46.4889V15.3745H55.5175L54.1029 15.9726C54.1029 15.2442 53.9917 14.6116 53.7693 14.0749C53.5469 13.5305 53.2172 13.1049 52.7802 12.7982C52.3431 12.4915 51.7987 12.3382 51.147 12.3382C50.4952 12.3382 49.9393 12.4915 49.4793 12.7982C49.0192 13.1049 48.6703 13.519 48.4326 14.0404C48.1949 14.5541 48.0761 15.1292 48.0761 15.7656V17.1803C48.0761 17.9624 48.2103 18.6333 48.4786 19.193C48.7547 19.7451 49.1381 20.1668 49.6288 20.4582C50.1272 20.7495 50.7061 20.8952 51.3655 20.8952C51.7949 20.8952 52.1859 20.8339 52.5387 20.7112C52.899 20.5885 53.2057 20.4045 53.4588 20.1591C53.7195 19.9061 53.9188 19.5956 54.0568 19.2275L56.8862 19.5611C56.7022 20.3048 56.361 20.9566 55.8626 21.5163C55.3718 22.0684 54.7393 22.4978 53.9648 22.8045C53.1981 23.1035 52.3163 23.253 51.3195 23.253ZM64.3621 23.253C63.074 23.253 61.9622 22.9847 61.0267 22.4479C60.0913 21.9035 59.3705 21.1368 58.8645 20.1476C58.3661 19.1585 58.1169 17.993 58.1169 16.6512C58.1169 15.3247 58.3661 14.1631 58.8645 13.1663C59.3628 12.1618 60.0644 11.3797 60.9692 10.82C61.874 10.2602 62.9398 9.98036 64.1666 9.98036C64.9564 9.98036 65.704 10.1069 66.4094 10.3599C67.1225 10.6129 67.7512 11.004 68.2956 11.5331C68.8477 12.0621 69.2809 12.7369 69.5953 13.5573C69.9097 14.3701 70.0669 15.34 70.0669 16.4672V17.4103H59.5315V15.3745H68.5602L67.1455 15.9726C67.1455 15.2442 67.0343 14.6116 66.812 14.0749C66.5896 13.5305 66.2599 13.1049 65.8228 12.7982C65.3858 12.4915 64.8414 12.3382 64.1896 12.3382C63.5379 12.3382 62.982 12.4915 62.5219 12.7982C62.0619 13.1049 61.713 13.519 61.4753 14.0404C61.2376 14.5541 61.1187 15.1292 61.1187 15.7656V17.1803C61.1187 17.9624 61.2529 18.6333 61.5213 19.193C61.7973 19.7451 62.1807 20.1668 62.6714 20.4582C63.1698 20.7495 63.7487 20.8952 64.4082 20.8952C64.8375 20.8952 65.2286 20.8339 65.5813 20.7112C65.9417 20.5885 66.2484 20.4045 66.5014 20.1591C66.7621 19.9061 66.9615 19.5956 67.0995 19.2275L69.9288 19.5611C69.7448 20.3048 69.4036 20.9566 68.9052 21.5163C68.4145 22.0684 67.7819 22.4978 67.0075 22.8045C66.2407 23.1035 65.3589 23.253 64.3621 23.253ZM71.7116 27.8076V10.1414H74.6789V12.2691H74.863C75.0163 11.9624 75.2349 11.6327 75.5186 11.28C75.8023 10.9196 76.1856 10.6129 76.6687 10.3599C77.1594 10.1069 77.7843 9.98036 78.5434 9.98036C79.5326 9.98036 80.4258 10.2334 81.2233 10.7395C82.0207 11.2455 82.6533 11.9893 83.121 12.9707C83.5964 13.9522 83.8341 15.1598 83.8341 16.5937C83.8341 18.0045 83.6041 19.2045 83.144 20.1936C82.684 21.1828 82.0514 21.938 81.2463 22.4594C80.4488 22.9732 79.5441 23.23 78.5319 23.23C77.8035 23.23 77.1939 23.1073 76.7032 22.862C76.2201 22.609 75.8291 22.3099 75.5301 21.9649C75.2387 21.6122 75.0163 21.2786 74.863 20.9642H74.7365V27.8076H71.7116ZM77.7038 20.7457C78.3709 20.7457 78.9268 20.5655 79.3715 20.2051C79.8239 19.8448 80.1651 19.3502 80.3952 18.7215C80.6252 18.0927 80.7402 17.3796 80.7402 16.5822C80.7402 15.7848 80.6252 15.0755 80.3952 14.4544C80.1651 13.8333 79.8278 13.3464 79.383 12.9937C78.9383 12.641 78.3786 12.4647 77.7038 12.4647C77.0521 12.4647 76.5 12.6334 76.0476 12.9707C75.6029 13.3081 75.2617 13.7873 75.024 14.4084C74.794 15.0218 74.6789 15.7464 74.6789 16.5822C74.6789 17.4103 74.794 18.1387 75.024 18.7675C75.2617 19.3885 75.6067 19.8754 76.0591 20.2282C76.5115 20.5732 77.0597 20.7457 77.7038 20.7457ZM93.0583 23.23C91.5554 23.23 90.2097 22.8812 89.0213 22.1834C87.8404 21.4856 86.9088 20.4812 86.2264 19.17C85.5517 17.8589 85.2143 16.2832 85.2143 14.4429C85.2143 12.595 85.5555 11.0155 86.2379 9.70432C86.928 8.38549 87.8634 7.37719 89.0443 6.67944C90.2327 5.98168 91.5707 5.63281 93.0583 5.63281C94.0014 5.63281 94.8832 5.76699 95.7036 6.03536C96.5317 6.30373 97.2678 6.69861 97.9119 7.22001C98.556 7.73374 99.0812 8.36632 99.4876 9.11775C99.9016 9.86151 100.174 10.7088 100.304 11.6596H97.1758C97.0914 11.1382 96.9266 10.6781 96.6812 10.2794C96.4435 9.88068 96.1445 9.5433 95.7841 9.26727C95.4314 8.98356 95.0288 8.7727 94.5765 8.63469C94.1241 8.489 93.6372 8.41616 93.1158 8.41616C92.1803 8.41616 91.3522 8.65002 90.6315 9.11775C89.9107 9.57781 89.3471 10.2602 88.9407 11.165C88.5344 12.0621 88.3312 13.1548 88.3312 14.4429C88.3312 15.7464 88.5344 16.8467 88.9407 17.7438C89.3548 18.6333 89.9184 19.308 90.6315 19.7681C91.3522 20.2205 92.1765 20.4467 93.1043 20.4467C93.618 20.4467 94.0972 20.3815 94.542 20.2512C94.9867 20.1131 95.3892 19.9099 95.7496 19.6416C96.1177 19.3655 96.4205 19.0358 96.6582 18.6525C96.9036 18.2614 97.0761 17.8128 97.1758 17.3068H100.304C100.189 18.1272 99.9361 18.8978 99.5451 19.6186C99.1617 20.3317 98.6556 20.9604 98.0269 21.5048C97.4058 22.0415 96.6774 22.4633 95.8416 22.77C95.0058 23.0767 94.0781 23.23 93.0583 23.23ZM105.871 23.2645C105.05 23.2645 104.314 23.1188 103.663 22.8275C103.011 22.5284 102.497 22.0914 102.121 21.5163C101.746 20.9412 101.558 20.232 101.558 19.3885C101.558 18.6678 101.692 18.0697 101.96 17.5943C102.229 17.1189 102.593 16.7394 103.053 16.4557C103.521 16.172 104.046 15.9573 104.629 15.8116C105.211 15.6582 105.813 15.5509 106.434 15.4896C107.194 15.4052 107.807 15.3324 108.275 15.271C108.742 15.2097 109.08 15.11 109.287 14.972C109.502 14.834 109.609 14.6193 109.609 14.3279V14.2704C109.609 13.6493 109.425 13.1663 109.057 12.8212C108.689 12.4762 108.152 12.3036 107.447 12.3036C106.703 12.3036 106.112 12.4647 105.675 12.7867C105.246 13.1088 104.955 13.4883 104.801 13.9254L101.983 13.5228C102.206 12.7407 102.574 12.089 103.088 11.5676C103.601 11.0385 104.226 10.6436 104.962 10.3829C105.706 10.1145 106.526 9.98036 107.424 9.98036C108.037 9.98036 108.65 10.0532 109.264 10.1989C109.877 10.3369 110.441 10.5746 110.955 10.912C111.468 11.2493 111.878 11.7017 112.185 12.2691C112.492 12.8366 112.645 13.5458 112.645 14.3969V23H109.735V21.2288H109.643C109.459 21.5815 109.199 21.915 108.861 22.2294C108.532 22.5361 108.118 22.7853 107.619 22.977C107.128 23.1687 106.546 23.2645 105.871 23.2645ZM106.641 21.0333C107.255 21.0333 107.784 20.9144 108.229 20.6767C108.673 20.4313 109.018 20.1093 109.264 19.7106C109.509 19.3042 109.632 18.8633 109.632 18.3879V16.8812C109.532 16.9579 109.371 17.0307 109.149 17.0998C108.926 17.1611 108.673 17.2186 108.39 17.2723C108.106 17.326 107.826 17.372 107.55 17.4103C107.282 17.4486 107.048 17.4793 106.849 17.5023C106.396 17.5636 105.99 17.6672 105.629 17.8128C105.277 17.9509 104.997 18.1426 104.79 18.3879C104.583 18.6333 104.479 18.9515 104.479 19.3425C104.479 19.9023 104.682 20.324 105.089 20.6077C105.495 20.8914 106.013 21.0333 106.641 21.0333ZM114.888 23V10.1414H117.821V12.3036H117.959C118.189 11.5522 118.591 10.9771 119.167 10.5784C119.742 10.172 120.397 9.96885 121.133 9.96885C121.294 9.96885 121.478 9.97652 121.685 9.99186C121.9 10.0072 122.076 10.0264 122.214 10.0494V12.8327C122.084 12.7867 121.881 12.7484 121.605 12.7177C121.329 12.687 121.064 12.6717 120.811 12.6717C120.252 12.6717 119.753 12.7905 119.316 13.0282C118.879 13.2659 118.534 13.5918 118.281 14.0059C118.036 14.4199 117.913 14.903 117.913 15.455V23H114.888ZM135.223 10.1414L130.645 23H127.287L122.721 10.1414H125.952L128.931 19.6991H129.069L132.025 10.1414H135.223ZM141.698 23.253C140.41 23.253 139.298 22.9847 138.362 22.4479C137.427 21.9035 136.706 21.1368 136.2 20.1476C135.702 19.1585 135.453 17.993 135.453 16.6512C135.453 15.3247 135.702 14.1631 136.2 13.1663C136.699 12.1618 137.4 11.3797 138.305 10.82C139.21 10.2602 140.276 9.98036 141.502 9.98036C142.292 9.98036 143.04 10.1069 143.745 10.3599C144.458 10.6129 145.087 11.004 145.631 11.5331C146.183 12.0621 146.617 12.7369 146.931 13.5573C147.245 14.3701 147.403 15.34 147.403 16.4672V17.4103H136.867V15.3745H145.896L144.481 15.9726C144.481 15.2442 144.37 14.6116 144.148 14.0749C143.925 13.5305 143.596 13.1049 143.159 12.7982C142.722 12.4915 142.177 12.3382 141.525 12.3382C140.874 12.3382 140.318 12.4915 139.858 12.7982C139.398 13.1049 139.049 13.519 138.811 14.0404C138.573 14.5541 138.455 15.1292 138.455 15.7656V17.1803C138.455 17.9624 138.589 18.6333 138.857 19.193C139.133 19.7451 139.516 20.1668 140.007 20.4582C140.506 20.7495 141.085 20.8952 141.744 20.8952C142.173 20.8952 142.564 20.8339 142.917 20.7112C143.277 20.5885 143.584 20.4045 143.837 20.1591C144.098 19.9061 144.297 19.5956 144.435 19.2275L147.265 19.5611C147.081 20.3048 146.739 20.9566 146.241 21.5163C145.75 22.0684 145.118 22.4978 144.343 22.8045C143.576 23.1035 142.695 23.253 141.698 23.253Z"
          fill="#013264"/>
    <path d="M0.000244141 25.6526C1.21334 25.4145 2.50351 25.291 3.80918 25.2895C5.31991 25.2877 6.80942 25.4493 8.18255 25.7636H16.138C14.9383 25.4781 13.8298 25.075 12.8768 24.5616C10.3041 23.1758 7.01636 22.5254 3.80597 22.5291C2.53284 22.5306 1.24783 22.635 0.000244141 22.8468V25.6526Z"
          fill="#BCD9F6"/>
    <path d="M0.000244141 19.9557C1.21334 19.7175 2.50351 19.594 3.80918 19.5925C6.69348 19.5891 9.50042 20.1812 11.5678 21.2948C14.139 22.6798 17.4192 23.3344 20.6239 23.3344C21.6014 23.3344 22.5859 23.2735 23.5552 23.1496V20.3636C22.6053 20.5029 21.6191 20.5741 20.6239 20.5741C17.747 20.5741 14.9456 19.979 12.8768 18.8646C10.3041 17.4788 7.01636 16.8284 3.80597 16.8321C2.53284 16.8336 1.24783 16.938 0.000244141 17.1498V19.9557Z"
          fill="#548FCA"/>
    <path d="M0.000244141 14.1285C1.21316 13.8805 2.50343 13.7519 3.80924 13.7503C6.68604 13.7468 9.48565 14.36 11.5485 15.5139C14.1242 16.9547 17.4116 17.6362 20.6239 17.6362C21.6014 17.6362 22.5859 17.573 23.5552 17.4446V14.6566C22.6054 14.8017 21.6191 14.8758 20.6239 14.8758C17.7545 14.8758 14.9604 14.2596 12.8961 13.1048C10.3189 11.6632 7.02381 10.986 3.80591 10.9899C2.53277 10.9915 1.24783 11.0997 0.000244141 11.319V14.1285Z"
          fill="#0154A7"/>
    <path d="M0.000244141 8.31425C1.21334 8.0761 2.50351 7.95258 3.80918 7.95107C6.69348 7.94771 9.50042 8.53984 11.5678 9.65343C14.139 11.0384 17.4192 11.693 20.6239 11.693C21.6014 11.693 22.5859 11.6321 23.5552 11.5082V8.72216C22.6053 8.86145 21.6191 8.93267 20.6239 8.93267C17.747 8.93267 14.9456 8.33759 12.8768 7.22321C10.3041 5.83743 7.01636 5.18698 3.80597 5.19072C2.53284 5.1922 1.24783 5.29659 0.000244141 5.50838V8.31425Z"
          fill="#0154A7"/>
    <path d="M23.5552 5.80322C22.5859 5.93164 21.6014 5.99476 20.6239 5.99476C17.4116 5.99476 14.1242 5.31325 11.5485 3.8725C10.7316 3.41555 9.79916 3.04339 8.79213 2.76074H16.3659C17.707 3.07305 19.1556 3.23441 20.6239 3.23441C21.6191 3.23441 22.6054 3.16027 23.5552 3.01522V5.80322Z"
          fill="#013264"/>
</svg>
